<?xml version="1.0" encoding="utf-8"?>
<!-- Generator: Adobe Illustrator 28.1.0, SVG Export Plug-In . SVG Version: 6.00 Build 0)  -->
<svg version="1.1" id="Layer_1" xmlns="http://www.w3.org/2000/svg" xmlns:xlink="http://www.w3.org/1999/xlink" x="0px" y="0px"
	 viewBox="0 0 582.5 223.8" style="enable-background:new 0 0 582.5 223.8;" xml:space="preserve">
<style type="text/css">
	.st0{clip-path:url(#SVGID_00000127022124301692703270000004359506080927828627_);fill:#80BC00;}
	.st1{clip-path:url(#SVGID_00000051365331334278601050000002427574287189982358_);fill:#80BC00;}
	.st2{clip-path:url(#SVGID_00000165223120284978957170000009093002698070924479_);fill:#80BC00;}
	.st3{clip-path:url(#SVGID_00000008110645183027062350000007300236162006697393_);fill:#6F7271;}
	.st4{clip-path:url(#SVGID_00000169534019452323127820000014201589205345893548_);fill:#6F7271;}
	.st5{clip-path:url(#SVGID_00000106147485355287603490000006195438954303223196_);fill:#6F7271;}
	.st6{clip-path:url(#SVGID_00000114060562518986436980000007530989931453310126_);fill:#6F7271;}
	.st7{clip-path:url(#SVGID_00000040534171194652105750000006831566061644124812_);fill:#6F7271;}
	.st8{clip-path:url(#SVGID_00000080178416169052386260000013598918984462786749_);fill:#6F7271;}
	.st9{clip-path:url(#SVGID_00000060029176410695999610000015536350417774265260_);fill:#6F7271;}
	.st10{clip-path:url(#SVGID_00000002381614201151788470000013599543596051369655_);fill:#6F7271;}
	.st11{clip-path:url(#SVGID_00000132056096425221575000000013899125996856316818_);fill:#004987;}
	.st12{clip-path:url(#SVGID_00000062185940254538060980000000365817421481012105_);fill:#004987;}
	.st13{clip-path:url(#SVGID_00000124158626864087160260000003654956138196253606_);fill:#004987;}
	.st14{clip-path:url(#SVGID_00000030479651149478908850000014309837981743995816_);fill:#004987;}
	.st15{clip-path:url(#SVGID_00000124148215157635645230000014592138328469096100_);fill:#004987;}
	.st16{clip-path:url(#SVGID_00000062168546188684220860000017383199005009810068_);fill:#004987;}
	.st17{clip-path:url(#SVGID_00000102535476022972303870000010851036826224801425_);fill:#004987;}
	.st18{clip-path:url(#SVGID_00000054964647982787329990000014322310121289684905_);fill:#004987;}
	.st19{clip-path:url(#SVGID_00000016773465913195302250000005014898002305969340_);fill:#004987;}
	.st20{clip-path:url(#SVGID_00000111898011688807361050000008451868331510175926_);fill:#004987;}
	.st21{clip-path:url(#SVGID_00000116219639397543649360000008116148637900063385_);fill:#004987;}
	.st22{clip-path:url(#SVGID_00000142864596591709463480000017419445967022212248_);fill:#004987;}
	.st23{clip-path:url(#SVGID_00000035492861476785255050000000898237149195698867_);fill:#004987;}
	.st24{clip-path:url(#SVGID_00000052803575794795184520000003489075265086783163_);fill:#004987;}
	.st25{clip-path:url(#SVGID_00000163070736071453440250000015149357903082378932_);fill:#004987;}
	.st26{fill:#6F7271;}
</style>
<g>
	<defs>
		<path id="SVGID_1_" d="M326.3,148.4c-4.4,40.4,1.3,60.2,8.5,60.8c0,0-1.8-36.4,2.8-59.8c1-5.3,2-10.4,3-15.3
			C336.5,138.6,331.8,143.3,326.3,148.4 M348.8,57.1c2.1,2,4,4.5,5.5,7.4c1.1,2.2,2.1,4.4,3,6.5c4-11.4,9-21,15.8-29.4
			c15.6-19.2,19.3-20,20.1-19.8c-0.7-0.4-3.8-1.8-8.3-1.8C375.9,19.9,361.4,25.7,348.8,57.1"/>
	</defs>
	<clipPath id="SVGID_00000133499457934265302570000001337002331939381398_">
		<use xlink:href="#SVGID_1_"  style="overflow:visible;"/>
	</clipPath>
	
		<rect x="321.9" y="19.9" style="clip-path:url(#SVGID_00000133499457934265302570000001337002331939381398_);fill:#80BC00;" width="71.3" height="189.2"/>
</g>
<g>
	<defs>
		<path id="SVGID_00000117642810558848586840000016270057187240913280_" d="M282.9,59.8c0,0,62.4,4,55.1,44.2
			c-7.3,40.2-77.9,87.4-77.9,87.4s19.8-7.9,59.7-43.1c39.8-35.2,45.3-53.6,30.7-82c-5.7-11.2-17.5-14.6-29.6-14.6
			C302.4,51.8,282.9,59.8,282.9,59.8"/>
	</defs>
	<clipPath id="SVGID_00000091704331518932659370000007998544967905393802_">
		<use xlink:href="#SVGID_00000117642810558848586840000016270057187240913280_"  style="overflow:visible;"/>
	</clipPath>
	
		<rect x="260.2" y="51.8" style="clip-path:url(#SVGID_00000091704331518932659370000007998544967905393802_);fill:#80BC00;" width="104.9" height="139.6"/>
</g>
<g>
	<defs>
		<path id="SVGID_00000075873196160121707990000014294175826958101901_" d="M324,28.9c-1.7,6.9,2.5,13.9,9.4,15.7
			c6.9,1.7,13.9-2.5,15.7-9.4c1.7-6.9-2.5-13.9-9.4-15.7c-1-0.3-2.1-0.4-3.1-0.4C330.7,19.1,325.5,23.1,324,28.9"/>
	</defs>
	<clipPath id="SVGID_00000026156289330309827690000010080039893067070619_">
		<use xlink:href="#SVGID_00000075873196160121707990000014294175826958101901_"  style="overflow:visible;"/>
	</clipPath>
	
		<rect x="322.3" y="19.1" style="clip-path:url(#SVGID_00000026156289330309827690000010080039893067070619_);fill:#80BC00;" width="28.5" height="27.2"/>
</g>
<g>
	<defs>
		<path id="SVGID_00000085956290384430261460000009325987602290208701_" d="M18.6,85.4c-4,1.9-7.4,4.4-10.2,7.3
			c-2.8,3-4.9,6.2-6.3,9.7C0.7,106,0,109.4,0,112.7c0,4.5,0.6,8.4,1.9,11.6c1.3,3.3,3,6,5,8.3c2.1,2.2,4.3,4,6.8,5.4
			c2.5,1.3,4.9,2.4,7.3,3.1c2.4,0.7,4.7,1.2,6.7,1.5c2.1,0.2,3.7,0.3,4.8,0.3c4.2,0,7.7-0.6,10.5-1.7c2.8-1.1,5-2.5,6.8-4.2
			c1.8-1.6,3.1-3.4,4-5.3c0.9-1.9,1.6-3.6,2-5.2l-1.9-0.7c-0.2,0.8-0.6,2.1-1.4,3.8c-0.7,1.7-1.9,3.4-3.4,5.2
			c-1.5,1.7-3.5,3.2-6,4.5c-2.5,1.3-5.5,1.9-9.1,1.9c-3.8,0-6.8-0.9-9-2.6c-2.2-1.8-3.9-4.1-5-6.9c-1.1-2.8-1.9-6-2.1-9.4
			c-0.3-3.4-0.4-6.9-0.4-10.3c0-3.7,0.2-7.2,0.5-10.5c0.3-3.3,1-6.2,2-8.7c1-2.5,2.4-4.5,4.3-6c1.9-1.5,4.4-2.2,7.5-2.2
			c2.3,0,4.2,0.5,5.8,1.5c1.5,1,2.3,2.4,2.3,4.2c0,0.4-0.1,1-0.3,1.9c-0.2,0.9-0.4,1.8-0.7,2.8c-0.2,1-0.4,1.9-0.7,2.8
			c-0.2,0.9-0.3,1.5-0.3,1.9c0,2.4,0.9,3.9,2.6,4.7c1.7,0.7,3.6,1.1,5.6,1.1c2.7,0,4.9-0.6,6.4-1.8c1.5-1.2,2.3-3.2,2.3-6.2
			c0-2.2-0.6-4.2-1.7-6c-1.1-1.8-2.6-3.4-4.6-4.6c-2-1.3-4.3-2.3-7.1-3c-2.7-0.7-5.8-1.1-9.1-1.1C27.3,82.5,22.6,83.5,18.6,85.4"/>
	</defs>
	<clipPath id="SVGID_00000008849229229405127140000000460455452175819909_">
		<use xlink:href="#SVGID_00000085956290384430261460000009325987602290208701_"  style="overflow:visible;"/>
	</clipPath>
	
		<rect y="82.5" style="clip-path:url(#SVGID_00000008849229229405127140000000460455452175819909_);fill:#6F7271;" width="56.1" height="60.3"/>
</g>
<g>
	<defs>
		<path id="SVGID_00000153667543160945040240000001225367543133936298_" d="M61.3,45.7v1.9H70v91.7h-8.7v1.9h33.2v-1.9h-8.3V111
			c0-4.1,0.4-7.6,1.3-10.6c0.9-3,2-5.5,3.5-7.5c1.5-2,3.2-3.5,5.1-4.6c1.9-1,4-1.5,6.1-1.5c2.6,0,4.6,0.9,6.1,2.6
			c1.5,1.7,2.3,4.4,2.3,8.1v41.8h-8.2v1.9h33.2v-1.9h-8.9V102c0-5.8-1.6-10.4-4.8-13.8c-3.2-3.4-7.7-5-13.6-5c-4,0-7.3,0.6-9.9,1.7
			c-2.6,1.1-4.7,2.5-6.4,4c-1.7,1.5-2.9,3.1-3.8,4.6c-0.8,1.5-1.4,2.7-1.8,3.5h-0.3V45.7H61.3z"/>
	</defs>
	<clipPath id="SVGID_00000178174269150273427790000001481442368269702020_">
		<use xlink:href="#SVGID_00000153667543160945040240000001225367543133936298_"  style="overflow:visible;"/>
	</clipPath>
	
		<rect x="61.3" y="45.7" style="clip-path:url(#SVGID_00000178174269150273427790000001481442368269702020_);fill:#6F7271;" width="74.2" height="95.4"/>
</g>
<g>
	<defs>
		<path id="SVGID_00000073681678453508287620000015654722063572802734_" d="M140.5,84.4v1.9h8.9v53.1h-8.9v1.9h33.9v-1.9h-8.9V84.4
			H140.5z M150.8,49.3c-1.9,1.9-2.8,4.1-2.8,6.6c0,2.6,0.9,4.8,2.8,6.6c1.9,1.9,4.1,2.8,6.6,2.8c2.6,0,4.8-0.9,6.6-2.8
			c1.9-1.9,2.8-4.1,2.8-6.6c0-2.6-0.9-4.8-2.8-6.6c-1.9-1.9-4.1-2.8-6.6-2.8C154.9,46.5,152.7,47.5,150.8,49.3"/>
	</defs>
	<clipPath id="SVGID_00000017505536075168949860000016232759331347356599_">
		<use xlink:href="#SVGID_00000073681678453508287620000015654722063572802734_"  style="overflow:visible;"/>
	</clipPath>
	
		<rect x="140.5" y="46.5" style="clip-path:url(#SVGID_00000017505536075168949860000016232759331347356599_);fill:#6F7271;" width="33.9" height="94.6"/>
</g>
<g>
	<defs>
		<path id="SVGID_00000054948843098394919620000001476178571372788897_" d="M212.7,86.8c-2.7,2.4-4.8,5.3-6.4,8.7H206V84.4h-24.5
			v1.9h8.6v53.1h-8.6v1.9h35.2v-1.9h-10.5v-33.9c0-2.8,0.4-5.4,1.3-7.6c0.8-2.2,1.8-4.2,3-5.8c1.1-1.6,2.4-2.8,3.7-3.6
			c1.3-0.8,2.4-1.3,3.3-1.3c0.8,0,1.4,0.2,1.8,0.5c0.4,0.3,0.7,0.7,0.9,1.1c0.2,0.4,0.3,1,0.4,1.7c0,0.1,0,0.4-0.1,1.1
			c-0.1,0.6-0.2,1.3-0.3,2.1c-0.1,0.7-0.2,1.5-0.3,2.1c-0.1,0.7-0.1,1.1-0.1,1.4c0,2.3,0.8,3.9,2.5,4.7c1.7,0.8,3.5,1.3,5.6,1.3
			c2.8,0,4.9-0.7,6.2-2.2c1.3-1.5,1.9-3.6,1.9-6.2c0-3.5-1.1-6.3-3.4-8.3c-2.3-2-5.3-3-9-3C218.9,83.2,215.4,84.4,212.7,86.8"/>
	</defs>
	<clipPath id="SVGID_00000049942476312867149710000009938380665246588088_">
		<use xlink:href="#SVGID_00000054948843098394919620000001476178571372788897_"  style="overflow:visible;"/>
	</clipPath>
	
		<rect x="181.5" y="83.2" style="clip-path:url(#SVGID_00000049942476312867149710000009938380665246588088_);fill:#6F7271;" width="54.2" height="57.9"/>
</g>
<g>
	<defs>
		<path id="SVGID_00000135687009869397558640000002863292566422127503_" d="M266.9,138.7c-1.9-1.6-3.4-3.8-4.3-6.4
			c-0.9-2.6-1.5-5.7-1.7-9.1c-0.2-3.4-0.3-6.9-0.3-10.5c0-3.5,0.1-7,0.3-10.4c0.2-3.4,0.8-6.4,1.7-9.1c0.9-2.6,2.4-4.8,4.3-6.4
			c1.9-1.6,4.6-2.4,8.1-2.4c3.4,0,6.1,0.8,8.1,2.4c1.9,1.6,3.4,3.8,4.3,6.4c0.9,2.6,1.5,5.7,1.7,9.1c0.2,3.4,0.3,6.9,0.3,10.4
			c0,3.5-0.1,7-0.3,10.5c-0.2,3.4-0.8,6.5-1.7,9.1c-0.9,2.6-2.4,4.8-4.3,6.4c-1.9,1.6-4.6,2.4-8.1,2.4
			C271.5,141.1,268.8,140.3,266.9,138.7 M262.2,85c-3.9,1.6-7.3,3.8-10.3,6.5c-2.9,2.7-5.2,5.9-6.8,9.6c-1.6,3.7-2.4,7.5-2.4,11.6
			c0,4.1,0.8,8,2.4,11.7c1.6,3.7,3.9,6.9,6.8,9.6c2.9,2.7,6.3,4.9,10.3,6.5c3.9,1.6,8.2,2.4,12.8,2.4c4.6,0,8.8-0.8,12.8-2.4
			c3.9-1.6,7.3-3.7,10.3-6.5c2.9-2.7,5.2-5.9,6.8-9.6c1.6-3.7,2.4-7.6,2.4-11.7c0-4.1-0.8-7.9-2.4-11.6c-1.6-3.7-3.9-6.9-6.8-9.6
			c-2.9-2.7-6.3-4.9-10.3-6.5c-3.9-1.6-8.2-2.4-12.8-2.4C270.3,82.5,266.1,83.3,262.2,85"/>
	</defs>
	<clipPath id="SVGID_00000136403477375308079570000010506886131681182359_">
		<use xlink:href="#SVGID_00000135687009869397558640000002863292566422127503_"  style="overflow:visible;"/>
	</clipPath>
	
		<rect x="242.6" y="82.5" style="clip-path:url(#SVGID_00000136403477375308079570000010506886131681182359_);fill:#6F7271;" width="64.6" height="60.3"/>
</g>
<g>
	<defs>
		<path id="SVGID_00000042699698377083608030000014373226112620662158_" d="M398,138.7c-1.9-1.6-3.4-3.8-4.3-6.4
			c-0.9-2.6-1.5-5.7-1.7-9.1c-0.2-3.4-0.3-6.9-0.3-10.5c0-3.5,0.1-7,0.3-10.4c0.2-3.4,0.8-6.4,1.7-9.1c0.9-2.6,2.4-4.8,4.3-6.4
			c1.9-1.6,4.6-2.4,8.1-2.4c3.4,0,6.1,0.8,8.1,2.4c1.9,1.6,3.4,3.8,4.3,6.4c0.9,2.6,1.5,5.7,1.7,9.1c0.2,3.4,0.3,6.9,0.3,10.4
			c0,3.5-0.1,7-0.3,10.5c-0.2,3.4-0.8,6.5-1.7,9.1c-0.9,2.6-2.4,4.8-4.3,6.4c-1.9,1.6-4.6,2.4-8.1,2.4
			C402.7,141.1,400,140.3,398,138.7 M393.3,85c-3.9,1.6-7.3,3.8-10.3,6.5c-2.9,2.7-5.2,5.9-6.8,9.6c-1.6,3.7-2.4,7.5-2.4,11.6
			c0,4.1,0.8,8,2.4,11.7c1.6,3.7,3.9,6.9,6.8,9.6c2.9,2.7,6.3,4.9,10.3,6.5c3.9,1.6,8.2,2.4,12.8,2.4c4.6,0,8.8-0.8,12.8-2.4
			c3.9-1.6,7.3-3.7,10.3-6.5c2.9-2.7,5.2-5.9,6.8-9.6c1.6-3.7,2.4-7.6,2.4-11.7c0-4.1-0.8-7.9-2.4-11.6c-1.6-3.7-3.9-6.9-6.8-9.6
			c-2.9-2.7-6.3-4.9-10.3-6.5c-3.9-1.6-8.2-2.4-12.8-2.4C401.5,82.5,397.2,83.3,393.3,85"/>
	</defs>
	<clipPath id="SVGID_00000109015076029485311640000001556725788220694419_">
		<use xlink:href="#SVGID_00000042699698377083608030000014373226112620662158_"  style="overflow:visible;"/>
	</clipPath>
	
		<rect x="373.8" y="82.5" style="clip-path:url(#SVGID_00000109015076029485311640000001556725788220694419_);fill:#6F7271;" width="64.6" height="60.3"/>
</g>
<g>
	<defs>
		<path id="SVGID_00000006667386287102805650000007304861847050562214_" d="M478.9,85c-2.6,1.2-4.8,2.6-6.5,4.2
			c-1.7,1.6-3,3.2-3.8,4.8c-0.9,1.6-1.5,2.8-1.9,3.6h-0.3V84.4h-24.6v1.9h8.7v53.1h-8.7v1.9H475v-1.9h-8.3V111
			c0-4.1,0.4-7.6,1.3-10.6c0.9-3,2-5.5,3.5-7.5c1.5-2,3.2-3.5,5.1-4.6c1.9-1,4-1.5,6.1-1.5c2.6,0,4.6,0.9,6.1,2.6
			c1.5,1.7,2.3,4.4,2.3,8.1v41.8h-8.2v1.9H516v-1.9h-8.9V102c0-5.8-1.6-10.4-4.8-13.8c-3.2-3.4-7.7-5-13.6-5
			C484.8,83.2,481.5,83.8,478.9,85"/>
	</defs>
	<clipPath id="SVGID_00000000182883602911950260000001874270038641896383_">
		<use xlink:href="#SVGID_00000006667386287102805650000007304861847050562214_"  style="overflow:visible;"/>
	</clipPath>
	
		<rect x="441.8" y="83.2" style="clip-path:url(#SVGID_00000000182883602911950260000001874270038641896383_);fill:#6F7271;" width="74.2" height="57.9"/>
</g>
<g>
	<defs>
		<path id="SVGID_00000070835567871185781690000011066001310233635234_" d="M536,98.9c0.2-2.5,0.7-4.8,1.5-7c0.8-2.2,2-3.9,3.6-5.4
			c1.6-1.4,3.9-2.1,6.9-2.1c2.1,0,3.8,0.5,5,1.5c1.2,1,2,2.2,2.6,3.6c0.5,1.4,0.8,2.8,0.9,4.2c0.1,1.4,0.1,2.6,0.1,3.6v8.9h-21.2
			C535.6,103.8,535.7,101.4,536,98.9 M536.3,85.1c-3.7,1.7-7,4-9.8,6.7c-2.8,2.8-5,6-6.6,9.6c-1.6,3.6-2.4,7.3-2.4,11.1
			c0,4.8,0.8,9,2.5,12.8c1.7,3.7,4,6.9,6.9,9.5c3,2.6,6.4,4.6,10.4,6c4,1.4,8.2,2,12.8,2c3.9,0,7.2-0.6,9.9-1.7
			c2.7-1.1,5-2.5,6.9-4.1c1.9-1.6,3.3-3.4,4.4-5.3c1.1-1.9,1.8-3.7,2.2-5.4l-1.9-0.7c-0.1,0.8-0.5,2-1.3,3.7
			c-0.8,1.7-1.9,3.4-3.4,5.1c-1.5,1.7-3.5,3.2-6,4.6c-2.4,1.3-5.4,2-8.9,2c-4,0-7.1-0.8-9.3-2.5c-2.2-1.7-3.9-3.8-5-6.4
			c-1.2-2.6-1.9-5.5-2.1-8.7c-0.3-3.2-0.4-6.4-0.4-9.6v-6h39c0-4.5-0.8-8.4-2.4-11.6c-1.6-3.2-3.6-5.8-6.1-7.9
			c-2.5-2-5.3-3.5-8.3-4.5c-3.1-1-6.2-1.5-9.3-1.5C544.1,82.5,540.1,83.4,536.3,85.1"/>
	</defs>
	<clipPath id="SVGID_00000072985429143243967570000006711870375131719306_">
		<use xlink:href="#SVGID_00000070835567871185781690000011066001310233635234_"  style="overflow:visible;"/>
	</clipPath>
	
		<rect x="517.6" y="82.5" style="clip-path:url(#SVGID_00000072985429143243967570000006711870375131719306_);fill:#6F7271;" width="56.9" height="60.3"/>
</g>
<g>
	<defs>
		<polygon id="SVGID_00000083058443380450927520000007644526793316022415_" points="364,171.8 361.8,181.3 359.2,171.8 355.3,171.8 
			352.8,181.3 350.5,171.8 345.8,171.8 350.5,187.1 354.7,187.1 357.2,177.2 359.8,187.1 364.1,187.1 368.7,171.8 		"/>
	</defs>
	<use xlink:href="#SVGID_00000083058443380450927520000007644526793316022415_"  style="overflow:visible;fill:#004987;"/>
	<clipPath id="SVGID_00000142860734621059115140000011631305003484489656_">
		<use xlink:href="#SVGID_00000083058443380450927520000007644526793316022415_"  style="overflow:visible;"/>
	</clipPath>
	
		<rect x="345.8" y="171.8" style="clip-path:url(#SVGID_00000142860734621059115140000011631305003484489656_);fill:#004987;" width="22.9" height="15.2"/>
</g>
<g>
	<defs>
		<path id="SVGID_00000041274723550726387320000013540897106457667463_" d="M377.5,175.1c2.4,0,3.3,1.7,3.4,2.4h-6.8
			C374.2,176.9,375.1,175.1,377.5,175.1 M369.5,179.5c0,4.5,3.7,8.1,8.1,8.1c1.6,0,3.1-0.5,4.3-1.4c1.3-0.9,2.4-2.2,3.1-3.9h-4.7
			c-0.5,0.8-1.3,1.4-2.8,1.4c-1.8,0-3.3-1.1-3.5-2.7h11.3c0.4-2.8-0.2-5.2-2.1-7.3c-1.4-1.5-3.4-2.4-5.8-2.4
			C372.8,171.3,369.5,175.2,369.5,179.5"/>
	</defs>
	<use xlink:href="#SVGID_00000041274723550726387320000013540897106457667463_"  style="overflow:visible;fill:#004987;"/>
	<clipPath id="SVGID_00000065051624328327025210000008577091626734291599_">
		<use xlink:href="#SVGID_00000041274723550726387320000013540897106457667463_"  style="overflow:visible;"/>
	</clipPath>
	
		<rect x="369.5" y="171.3" style="clip-path:url(#SVGID_00000065051624328327025210000008577091626734291599_);fill:#004987;" width="16.2" height="16.3"/>
</g>
<g>
	<defs>
		<rect id="SVGID_00000039119098283349824380000012556945571068965512_" x="388.3" y="166.8" width="4.6" height="20.3"/>
	</defs>
	<use xlink:href="#SVGID_00000039119098283349824380000012556945571068965512_"  style="overflow:visible;fill:#004987;"/>
	<clipPath id="SVGID_00000148636787317828156050000010849565857723231162_">
		<use xlink:href="#SVGID_00000039119098283349824380000012556945571068965512_"  style="overflow:visible;"/>
	</clipPath>
	
		<rect x="388.3" y="166.8" style="clip-path:url(#SVGID_00000148636787317828156050000010849565857723231162_);fill:#004987;" width="4.6" height="20.3"/>
</g>
<g>
	<defs>
		<rect id="SVGID_00000017501530975520189330000012221307289581147068_" x="396.4" y="166.8" width="4.6" height="20.3"/>
	</defs>
	<use xlink:href="#SVGID_00000017501530975520189330000012221307289581147068_"  style="overflow:visible;fill:#004987;"/>
	<clipPath id="SVGID_00000031923989919971305250000012753143840239738796_">
		<use xlink:href="#SVGID_00000017501530975520189330000012221307289581147068_"  style="overflow:visible;"/>
	</clipPath>
	
		<rect x="396.4" y="166.8" style="clip-path:url(#SVGID_00000031923989919971305250000012753143840239738796_);fill:#004987;" width="4.6" height="20.3"/>
</g>
<g>
	<defs>
		<path id="SVGID_00000014614927558214967240000001918188574844342204_" d="M408.8,173.4v-1.6h-4.3v15.2h4.6v-8.3
			c0-1.6,0.4-3.2,2.6-3.2c2,0,2.4,1.5,2.4,3.2v8.3h4.6v-9.5c0-2.1-0.5-6.2-5.7-6.2C410.3,171.3,409.3,172.7,408.8,173.4"/>
	</defs>
	<use xlink:href="#SVGID_00000014614927558214967240000001918188574844342204_"  style="overflow:visible;fill:#004987;"/>
	<clipPath id="SVGID_00000074416510930480850080000002839687287826939047_">
		<use xlink:href="#SVGID_00000014614927558214967240000001918188574844342204_"  style="overflow:visible;"/>
	</clipPath>
	
		<rect x="404.5" y="171.3" style="clip-path:url(#SVGID_00000074416510930480850080000002839687287826939047_);fill:#004987;" width="14.1" height="15.8"/>
</g>
<g>
	<defs>
		<path id="SVGID_00000100374995094680557700000008349860461683603111_" d="M429.4,175.1c2.4,0,3.3,1.7,3.4,2.4H426
			C426.1,176.9,427,175.1,429.4,175.1 M421.3,179.5c0,4.5,3.7,8.1,8.1,8.1c1.6,0,3.1-0.5,4.3-1.4c1.3-0.9,2.4-2.2,3.1-3.9h-4.7
			c-0.5,0.8-1.3,1.4-2.8,1.4c-1.8,0-3.3-1.1-3.5-2.7h11.3c0.4-2.8-0.2-5.2-2.1-7.3c-1.4-1.5-3.4-2.4-5.8-2.4
			C424.7,171.3,421.3,175.2,421.3,179.5"/>
	</defs>
	<use xlink:href="#SVGID_00000100374995094680557700000008349860461683603111_"  style="overflow:visible;fill:#004987;"/>
	<clipPath id="SVGID_00000075154975090679676640000015194942502280577966_">
		<use xlink:href="#SVGID_00000100374995094680557700000008349860461683603111_"  style="overflow:visible;"/>
	</clipPath>
	
		<rect x="421.3" y="171.3" style="clip-path:url(#SVGID_00000075154975090679676640000015194942502280577966_);fill:#004987;" width="16.3" height="16.3"/>
</g>
<g>
	<defs>
		<path id="SVGID_00000033358109592936025350000014188774275706738333_" d="M439.4,176.5c0,2.1,1.6,3.3,3.6,4c2.9,1.1,4,1.3,4,2.3
			c0,0.7-0.8,1.2-1.6,1.2c-0.2,0-1.5,0-1.7-1.4h-4.5c0.4,4,3.9,5,6.2,5c3.4,0,6.2-2,6.2-5.3c0-3.3-2.7-4.1-5.3-4.8
			c-1.2-0.4-2.3-0.8-2.3-1.5c0-0.4,0.3-1,1.3-1c1.3,0,1.4,0.8,1.4,1.2h4.5c-0.4-4-3.8-4.8-5.8-4.8
			C442.1,171.3,439.4,173.3,439.4,176.5"/>
	</defs>
	<use xlink:href="#SVGID_00000033358109592936025350000014188774275706738333_"  style="overflow:visible;fill:#004987;"/>
	<clipPath id="SVGID_00000157270314670069878230000014581596528054335929_">
		<use xlink:href="#SVGID_00000033358109592936025350000014188774275706738333_"  style="overflow:visible;"/>
	</clipPath>
	
		<rect x="439.2" y="171.3" style="clip-path:url(#SVGID_00000157270314670069878230000014581596528054335929_);fill:#004987;" width="12.4" height="16.3"/>
</g>
<g>
	<defs>
		<path id="SVGID_00000145770900191512117290000015105843197753700270_" d="M453.3,176.5c0,2.1,1.6,3.3,3.6,4c2.9,1.1,4,1.3,4,2.3
			c0,0.7-0.8,1.2-1.6,1.2c-0.2,0-1.5,0-1.7-1.4h-4.5c0.4,4,3.9,5,6.2,5c3.4,0,6.2-2,6.2-5.3c0-3.3-2.7-4.1-5.3-4.8
			c-1.2-0.4-2.3-0.8-2.3-1.5c0-0.4,0.3-1,1.3-1c1.3,0,1.4,0.8,1.4,1.2h4.5c-0.4-4-3.8-4.8-5.8-4.8
			C456.1,171.3,453.3,173.3,453.3,176.5"/>
	</defs>
	<use xlink:href="#SVGID_00000145770900191512117290000015105843197753700270_"  style="overflow:visible;fill:#004987;"/>
	<clipPath id="SVGID_00000067217171075625377300000009628515349932737158_">
		<use xlink:href="#SVGID_00000145770900191512117290000015105843197753700270_"  style="overflow:visible;"/>
	</clipPath>
	
		<rect x="453.2" y="171.3" style="clip-path:url(#SVGID_00000067217171075625377300000009628515349932737158_);fill:#004987;" width="12.4" height="16.3"/>
</g>
<g>
	<defs>
		<path id="SVGID_00000008864873557390650070000004495261365152624551_" d="M476.1,179.4c0,4.5,3.5,8.2,8.2,8.2c4.1,0,7.2-2.8,8-6.3
			h-4.6c-0.5,0.9-1.4,2-3.3,2c-2.2,0-3.6-1.6-3.6-3.9c0-1.1,0.4-2.1,1-2.8c0.7-0.7,1.6-1.1,2.6-1.1c1.9,0,2.8,1.1,3.3,2.1h4.6
			c-0.8-3.7-4-6.4-8.1-6.4C479.6,171.3,476.1,174.9,476.1,179.4"/>
	</defs>
	<use xlink:href="#SVGID_00000008864873557390650070000004495261365152624551_"  style="overflow:visible;fill:#004987;"/>
	<clipPath id="SVGID_00000180354671092280827980000010611585418524661679_">
		<use xlink:href="#SVGID_00000008864873557390650070000004495261365152624551_"  style="overflow:visible;"/>
	</clipPath>
	
		<rect x="476.1" y="171.3" style="clip-path:url(#SVGID_00000180354671092280827980000010611585418524661679_);fill:#004987;" width="16.1" height="16.3"/>
</g>
<g>
	<defs>
		<path id="SVGID_00000102517585992090326240000016497746538573556664_" d="M502.2,175.1c2.4,0,3.3,1.7,3.4,2.4h-6.8
			C498.9,176.9,499.9,175.1,502.2,175.1 M494.2,179.5c0,4.5,3.7,8.1,8.1,8.1c1.6,0,3.1-0.5,4.3-1.4c1.3-0.9,2.4-2.2,3.1-3.9h-4.7
			c-0.6,0.8-1.3,1.4-2.8,1.4c-1.8,0-3.3-1.1-3.5-2.7h11.3c0.4-2.8-0.2-5.2-2.1-7.3c-1.4-1.5-3.4-2.4-5.8-2.4
			C497.6,171.3,494.2,175.2,494.2,179.5"/>
	</defs>
	<use xlink:href="#SVGID_00000102517585992090326240000016497746538573556664_"  style="overflow:visible;fill:#004987;"/>
	<clipPath id="SVGID_00000063599596667962691080000009441337956701803414_">
		<use xlink:href="#SVGID_00000102517585992090326240000016497746538573556664_"  style="overflow:visible;"/>
	</clipPath>
	
		<rect x="494.2" y="171.3" style="clip-path:url(#SVGID_00000063599596667962691080000009441337956701803414_);fill:#004987;" width="16.3" height="16.3"/>
</g>
<g>
	<defs>
		<path id="SVGID_00000141456801157909770610000009254135492309407396_" d="M517.3,173.4v-1.6H513v15.2h4.6v-8.3
			c0-1.6,0.4-3.2,2.6-3.2c2,0,2.4,1.5,2.4,3.2v8.3h4.6v-9.5c0-2.1-0.5-6.2-5.7-6.2C518.8,171.3,517.8,172.7,517.3,173.4"/>
	</defs>
	<use xlink:href="#SVGID_00000141456801157909770610000009254135492309407396_"  style="overflow:visible;fill:#004987;"/>
	<clipPath id="SVGID_00000173159071507824035170000005715436899162725528_">
		<use xlink:href="#SVGID_00000141456801157909770610000009254135492309407396_"  style="overflow:visible;"/>
	</clipPath>
	
		<rect x="513" y="171.3" style="clip-path:url(#SVGID_00000173159071507824035170000005715436899162725528_);fill:#004987;" width="14.1" height="15.8"/>
</g>
<g>
	<defs>
		<polygon id="SVGID_00000142883131998960101560000016744069403321105080_" points="531.6,166.7 531.6,171.8 529.3,171.8 
			529.3,175.3 531.6,175.3 531.6,187.1 536.1,187.1 536.1,175.3 538.3,175.3 538.3,171.8 536.1,171.8 536.1,166.7 		"/>
	</defs>
	<use xlink:href="#SVGID_00000142883131998960101560000016744069403321105080_"  style="overflow:visible;fill:#004987;"/>
	<clipPath id="SVGID_00000093152137203453848520000017091976415624482187_">
		<use xlink:href="#SVGID_00000142883131998960101560000016744069403321105080_"  style="overflow:visible;"/>
	</clipPath>
	
		<rect x="529.3" y="166.7" style="clip-path:url(#SVGID_00000093152137203453848520000017091976415624482187_);fill:#004987;" width="9" height="20.3"/>
</g>
<g>
	<defs>
		<path id="SVGID_00000168807204527414000270000011976947722160757395_" d="M547.2,175.1c2.4,0,3.3,1.7,3.4,2.4h-6.8
			C543.9,176.9,544.8,175.1,547.2,175.1 M539.2,179.5c0,4.5,3.7,8.1,8.1,8.1c1.6,0,3.1-0.5,4.3-1.4c1.3-0.9,2.4-2.2,3.1-3.9H550
			c-0.5,0.8-1.3,1.4-2.8,1.4c-1.8,0-3.3-1.1-3.5-2.7h11.3c0.4-2.8-0.2-5.2-2.1-7.3c-1.4-1.5-3.4-2.4-5.8-2.4
			C542.5,171.3,539.2,175.2,539.2,179.5"/>
	</defs>
	<use xlink:href="#SVGID_00000168807204527414000270000011976947722160757395_"  style="overflow:visible;fill:#004987;"/>
	<clipPath id="SVGID_00000004529461218106191640000011425303381783442347_">
		<use xlink:href="#SVGID_00000168807204527414000270000011976947722160757395_"  style="overflow:visible;"/>
	</clipPath>
	
		<rect x="539.2" y="171.3" style="clip-path:url(#SVGID_00000004529461218106191640000011425303381783442347_);fill:#004987;" width="16.3" height="16.3"/>
</g>
<g>
	<defs>
		<path id="SVGID_00000169546819190326558930000015394651304065075388_" d="M562.3,173.5v-1.7H558v15.2h4.6v-8.2c0-2.1,1.1-3,3.4-3
			h0.2v-4.6C563.5,171.3,562.7,172.7,562.3,173.5"/>
	</defs>
	<use xlink:href="#SVGID_00000169546819190326558930000015394651304065075388_"  style="overflow:visible;fill:#004987;"/>
	<clipPath id="SVGID_00000024701353616417520390000003674788707904800134_">
		<use xlink:href="#SVGID_00000169546819190326558930000015394651304065075388_"  style="overflow:visible;"/>
	</clipPath>
	
		<rect x="558" y="171.3" style="clip-path:url(#SVGID_00000024701353616417520390000003674788707904800134_);fill:#004987;" width="8.2" height="15.8"/>
</g>
<g>
	<defs>
		<path id="SVGID_00000036249322862871983100000008417263272350427578_" d="M567.5,176.5c0,2.1,1.6,3.3,3.6,4c2.9,1.1,4,1.3,4,2.3
			c0,0.7-0.8,1.2-1.6,1.2c-0.2,0-1.5,0-1.7-1.4h-4.5c0.4,4,3.9,5,6.2,5c3.4,0,6.2-2,6.2-5.3c0-3.3-2.7-4.1-5.3-4.8
			c-1.2-0.4-2.3-0.8-2.3-1.5c0-0.4,0.3-1,1.3-1c1.3,0,1.4,0.8,1.4,1.2h4.5c-0.4-4-3.8-4.8-5.8-4.8
			C570.2,171.3,567.5,173.3,567.5,176.5"/>
	</defs>
	<use xlink:href="#SVGID_00000036249322862871983100000008417263272350427578_"  style="overflow:visible;fill:#004987;"/>
	<clipPath id="SVGID_00000062176842799217594050000004432066118132158115_">
		<use xlink:href="#SVGID_00000036249322862871983100000008417263272350427578_"  style="overflow:visible;"/>
	</clipPath>
	
		<rect x="567.3" y="171.3" style="clip-path:url(#SVGID_00000062176842799217594050000004432066118132158115_);fill:#004987;" width="12.4" height="16.3"/>
</g>
<g>
	<path class="st26" d="M578.1,82c2.5,0,4.4,2.1,4.4,4.5c0,2.5-2,4.5-4.5,4.5c-2.5,0-4.5-2-4.5-4.5C573.5,84.1,575.5,82,578.1,82
		L578.1,82z M578,82.9c-2,0-3.5,1.6-3.5,3.6c0,2,1.6,3.6,3.5,3.6c1.9,0,3.5-1.6,3.5-3.6C581.5,84.6,580,82.9,578,82.9L578,82.9z
		 M578.2,84c1,0,1.8,0.4,1.8,1.4c0,0.4-0.1,0.9-0.8,1.2c0.4,0.2,0.7,0.4,0.7,1.2c0.1,0.9,0.1,1,0.2,1.2h-1.2c-0.1-0.2-0.1-1-0.2-1.2
		c0-0.3-0.1-0.7-0.9-0.7h-0.5V89h-1.2v-5H578.2z M577.4,84.8v1.4h0.6c0.3,0,0.9,0,0.9-0.8c0-0.6-0.5-0.6-0.8-0.6H577.4z"/>
</g>
</svg>
